<svg xmlns="http://www.w3.org/2000/svg" style="display: none;">
  <symbol id="svg-drag" viewBox="0 0 362.667 362.667">
    <path d="M298.667,42.667c-8.768,0-16.939,2.667-23.723,7.211c-5.845-16.597-21.696-28.544-40.277-28.544
      c-8.768,0-16.939,2.667-23.723,7.211C205.099,11.947,189.248,0,170.667,0c-18.581,0-34.432,11.947-40.277,28.544
      c-6.784-4.544-14.955-7.211-23.723-7.211C83.136,21.333,64,40.469,64,64v48.917l-20.8,20.779
      c-14.101,14.123-21.867,32.853-21.867,52.8v32.32c0,19.947,7.765,38.699,21.867,52.821l42.688,42.667
      c31.168,31.189,72.661,48.363,116.779,48.363c76.459,0,138.667-62.208,138.667-138.667V85.333
      C341.333,61.803,322.197,42.667,298.667,42.667z M320,224c0,64.704-52.651,117.333-117.355,117.333
      c-38.421,0-74.539-14.955-101.675-42.112l-42.688-42.667c-10.069-10.091-15.616-23.488-15.616-37.717v-32.32
      c0-14.251,5.547-27.648,15.616-37.717L64,143.083V160c0,5.888,4.779,10.667,10.667,10.667S85.333,165.888,85.333,160v-42.645
      c0-0.021,0-0.021,0-0.043V64c0-11.755,9.557-21.333,21.333-21.333S128,52.245,128,64v32c0,5.888,4.779,10.667,10.667,10.667
      s10.667-4.779,10.667-10.667V42.667c0-11.755,9.557-21.333,21.333-21.333S192,30.912,192,42.667V96
      c0,5.888,4.779,10.667,10.667,10.667s10.667-4.779,10.667-10.667V64c0-11.755,9.557-21.333,21.333-21.333S256,52.245,256,64v32
      c0,5.888,4.779,10.667,10.667,10.667c5.888,0,10.667-4.779,10.667-10.667V85.333c0-11.755,9.557-21.333,21.333-21.333
      S320,73.579,320,85.333V224z"/>
  </symbol>

  <symbol id="svg-upload" viewBox="0 0 309.268 309.268">
    <path style="fill:#F4B459;" d="M57.988,106.37H251.28l57.988,57.988H0L57.988,106.37z"/>
    <path style="fill:#D07C40;" d="M67.652,125.708h173.963l48.323,48.323c0,0-3.962,48.323-10.95,48.323H28.453
      c-5.837,0-9.123-48.323-9.123-48.323L67.652,125.708z"/>
    <path style="fill:#F4B459;" d="M212.621,164.367v19.329c0,10.67-8.659,19.329-19.329,19.329h-77.317
      c-10.67,0-19.329-8.659-19.329-19.329v-19.329H0v115.975c0,10.67,8.659,19.329,19.329,19.329h270.609
      c10.67,0,19.329-8.659,19.329-19.329V164.367C309.267,164.367,212.621,164.367,212.621,164.367z"/>
    <path style="fill:#475F6C;" d="M220.044,71.364l-55.871-55.359c-5.248-8.544-13.83-8.544-19.078,0L89.214,71.364
      c-5.248,8.553-0.957,15.531,9.529,15.531h26.897v58.113c0,5.354,4.32,9.684,9.665,9.684h38.658c5.345,0,9.665-4.339,9.665-9.684
      V86.905h26.877C220.991,86.905,225.291,79.918,220.044,71.364z"/>
  </symbol>

  <symbol id="svg-edit" viewBox="0 0 53.255 53.255">
    <path style="fill:#D75A4A;" d="M39.598,2.343c3.124-3.124,8.19-3.124,11.314,0s3.124,8.19,0,11.314L39.598,2.343z"/>
    <polygon style="fill:#ED8A19;" points="42.426,17.899 16.512,43.814 15.982,48.587 44.548,20.02 44.548,20.02 "/>
    <polygon style="fill:#ED8A19;" points="10.325,42.93 15.098,42.4 41.012,16.485 36.77,12.243 10.855,38.157 "/>
    <polygon style="fill:#ED8A19;" points="35.356,10.829 33.234,8.707 33.234,8.707 4.668,37.273 9.441,36.743 "/>
    <polygon style="fill:#C7CAC7;" points="48.79,15.778 48.79,15.778 50.912,13.657 39.598,2.343 37.476,4.465 37.477,4.465 "/>
    <polygon style="fill:#C7CAC7;" points="36.062,5.879 36.062,5.879 34.648,7.293 34.648,7.293 45.962,18.606 45.962,18.606 
  47.376,17.192 47.376,17.192 "/>
    <path style="fill:#FBCE9D;" d="M14.424,44.488l-5.122,0.569c-0.036,0.004-0.073,0.006-0.109,0.006c0,0-0.001,0-0.001,0H9.192H9.192
  c-0.001,0-0.001,0-0.001,0c-0.036,0-0.073-0.002-0.109-0.006c-0.039-0.004-0.071-0.026-0.108-0.035
  c-0.072-0.017-0.141-0.035-0.207-0.067c-0.05-0.024-0.093-0.053-0.138-0.084c-0.057-0.04-0.109-0.083-0.157-0.134
  c-0.038-0.04-0.069-0.081-0.1-0.127c-0.038-0.057-0.069-0.116-0.095-0.181c-0.022-0.054-0.038-0.107-0.05-0.165
  c-0.007-0.032-0.024-0.059-0.028-0.092c-0.004-0.038,0.01-0.073,0.01-0.11c0-0.038-0.014-0.072-0.01-0.11l0.569-5.122l-5.122,0.569
  c-0.037,0.004-0.075,0.006-0.111,0.006c-0.079,0-0.152-0.024-0.227-0.042L0.442,51.399l2.106-2.106c0.391-0.391,1.023-0.391,1.414,0
  s0.391,1.023,0,1.414l-2.106,2.106l12.03-2.864c-0.026-0.109-0.043-0.222-0.03-0.339L14.424,44.488z"/>
    <path style="fill:#38454F;" d="M3.962,49.293c-0.391-0.391-1.023-0.391-1.414,0l-2.106,2.106L0,53.255l1.856-0.442l2.106-2.106
  C4.352,50.316,4.352,49.684,3.962,49.293z"/>
    <polygon style="fill:#F2ECBF;" points="48.79,15.778 37.477,4.465 37.476,4.465 36.062,5.879 36.062,5.879 47.376,17.192 
  47.376,17.192 48.79,15.778 "/>
    <path style="fill:#EBBA16;" d="M41.012,16.485L15.098,42.4l-4.773,0.53l0.53-4.773L36.77,12.243l-1.414-1.414L9.441,36.743
  l-4.773,0.53l-1.133,1.133l-0.228,0.957c0.075,0.018,0.147,0.042,0.227,0.042c0.036,0,0.074-0.002,0.111-0.006l5.122-0.569
  l-0.569,5.122c-0.004,0.038,0.01,0.073,0.01,0.11c0,0.038-0.014,0.072-0.01,0.11c0.004,0.033,0.021,0.06,0.028,0.092
  c0.012,0.057,0.029,0.112,0.05,0.165c0.026,0.064,0.057,0.124,0.095,0.181c0.03,0.045,0.063,0.088,0.1,0.127
  c0.047,0.05,0.1,0.094,0.157,0.134c0.044,0.031,0.089,0.061,0.138,0.084c0.065,0.031,0.135,0.05,0.207,0.067
  c0.038,0.009,0.069,0.03,0.108,0.035c0.036,0.004,0.072,0.006,0.109,0.006h0.001h0h0.001h0.001c0,0,0.001,0,0.001,0h0
  c0.035,0,0.072-0.002,0.109-0.006l5.122-0.569l-0.569,5.122c-0.013,0.118,0.004,0.23,0.03,0.339l0.963-0.229l1.133-1.132l0.53-4.773
  l25.914-25.915L41.012,16.485z"/>
    <polygon style="fill:#F2ECBF;" points="45.962,18.606 34.648,7.293 34.648,7.293 33.234,8.707 33.234,8.707 35.356,10.829 
  36.77,12.243 41.012,16.485 42.426,17.899 44.548,20.02 44.548,20.02 45.962,18.606 "/>

  </symbol>

  <symbol id="svg-remove" viewBox="-80 -100 612 612">
    <polygon style="fill:#E21B1B;" points="404.176,0 256,148.176 107.824,0 0,107.824 148.176,256 0,404.176 107.824,512 256,363.824 404.176,512 512,404.176 363.824,256 512,107.824 "/>
  </symbol>

  <symbol id="svg-file-upload" viewBox="0 0 520 520">
    <path d="M452.5,285c15,0,27,12,27,27v147c0,15-12,27-27,27h-418c-15,0-28-12-28-27V312c0-15,13-27,28-27    s27,12,27,27v119h364V312C425.5,297,437.5,285,452.5,285z" fill="#FFFFFF"/>
    <path d="M152.5,156c-11,11-27,11-38,0s-11-27,0-38l110-110c5-5,12-8,19-8s14,3,19,8l110,110    c11,11,11,27,0,38c-5,5-12,8-19,8s-15-3-20-8l-63-63v234c0,15-12,27-27,27s-27-12-27-27V93L152.5,156z" fill="#FFFFFF"/>
  </symbol>

  <symbol id="svg-play" viewBox="0 0 60 60">
    <path d="M53.479,27.435L10.672,0.915C7.553-1.132,5,0.374,5,4.261v51.48c0,3.885,2.553,5.391,5.672,3.346    l42.807-26.52c0,0,1.521-1.07,1.521-2.566S53.479,27.435,53.479,27.435z" fill="#FFFFFF"/>
  </symbol>

  <symbol id="svg-clear" viewBox="0 0 298.667 298.667">
    <polygon points="298.667,30.187 268.48,0 149.333,119.147 30.187,0 0,30.187 119.147,149.333 0,268.48 30.187,298.667     149.333,179.52 268.48,298.667 298.667,268.48 179.52,149.333   " fill="#FFFFFF"/>
  </symbol>

  <symbol id="svg-gallery" viewBox="10 10 108 111">
    <circle cx="76" cy="42.4" r="6.6" fill="#FFFFFF"/>
    <path d="m6.4,119.5c0,0 0,0.1 0,0 0,0.1 0,0.1 0.1,0.1 0.1,0.2 0.2,0.5 0.3,0.7 0,0.1 0.1,0.1 0.1,0.2 0,0.1 0.1,0.1 0.1,0.2 0,0 0.1,0.1 0.1,0.1 0.1,0.2 0.3,0.3 0.4,0.5 0,0 0.1,0.1 0.1,0.1 0.1,0.1 0.1,0.1 0.2,0.2 0.1,0 0.1,0.1 0.1,0.1 0.1,0.1 0.2,0.1 0.3,0.2 0,0 0.1,0.1 0.1,0.1 0,0 0.1,0 0.1,0.1 0.1,0.1 0.3,0.1 0.4,0.2 0.1,0 0.1,0 0.2,0.1 0.1,0 0.2,0.1 0.2,0.1 0.3,0.1 0.6,0.1 0.9,0.1h108.2c2.3,0 4.1-1.8 4.1-4.1v-27-80.9c0-2.3-1.8-4.1-4.1-4.1h-107.9c-2.3,0-4.1,1.8-4.1,4.1v80.7 27c0,0.3 0.1,0.7 0.1,1 0,0.1 0,0.2 0,0.2zm108.1-5.2h-90.4l66.8-43.7 23.6,22.5v21.2zm-100-99.6h100v67.1l-20.3-19.4c-1.4-1.3-3.5-1.5-5.1-0.5l-19.1,12.6-13.3-13.4c-1.4-1.4-3.5-1.6-5.1-0.6l-37.1,23.4v-69.2zm0,78.9l38.7-24.4 9.8,9.9-48.5,31.7v-17.2z" fill="#FFFFFF"/>
  </symbol>

  <symbol id="svg-check" viewBox="0 0 44 44">
    <path d="m22,0c-12.2,0-22,9.8-22,22s9.8,22 22,22 22-9.8 22-22-9.8-22-22-22zm12.7,15.1l0,0-16,16.6c-0.2,0.2-0.4,0.3-0.7,0.3-0.3,0-0.6-0.1-0.7-0.3l-7.8-8.4-.2-.2c-0.2-0.2-0.3-0.5-0.3-0.7s0.1-0.5 0.3-0.7l1.4-1.4c0.4-0.4 1-0.4 1.4,0l.1,.1 5.5,5.9c0.2,0.2 0.5,0.2 0.7,0l13.4-13.9h0.1c0.4-0.4 1-0.4 1.4,0l1.4,1.4c0.4,0.3 0.4,0.9 0,1.3z" fill="#70a245"/>
  </symbol>

  <symbol id="svg-image-file" viewBox="0 0 56 56">
    <path style="fill:#E9E9E0;" d="M36.985,0H7.963C7.155,0,6.5,0.655,6.5,1.926V55c0,0.345,0.655,1,1.463,1h40.074
      c0.808,0,1.463-0.655,1.463-1V12.978c0-0.696-0.093-0.92-0.257-1.085L37.607,0.257C37.442,0.093,37.218,0,36.985,0z"/>
    <path style="fill:#659C35;" d="M48.037,56H7.963C7.155,56,6.5,55.345,6.5,54.537V39h43v15.537C49.5,55.345,48.845,56,48.037,56z"/>
    <polygon style="fill:#D9D7CA;" points="37.5,0.151 37.5,12 49.349,12   "/>
    <circle style="fill:#F3D55B;" cx="18.931" cy="14.431" r="4.569"/>
    <polygon style="fill:#88C057;" points="6.5,39 17.5,39 49.5,39 49.5,28 39.5,18.5 29,30 23.517,24.517   "/>
  </symbol>

</svg>