<svg width="323" height="84" viewBox="0 0 323 84" fill="none" xmlns="http://www.w3.org/2000/svg">
<path d="M0 39.2913C0 38.2093 0.504845 37.1881 1.3674 36.5255L33.5608 9.59515C34.8327 8.61802 36.6101 8.61802 37.882 9.59515L70.0754 36.5255C70.938 37.1881 71.4428 38.2093 71.4428 39.2913V79.997C71.4428 81.9292 69.8632 83.4956 67.9148 83.4956H3.52804C1.57955 83.4956 0 81.9292 0 79.997V39.2913Z" fill="#A2DDFE"/>
<path d="M10.1289 30.429C10.1289 29.3469 10.6338 28.3258 11.4963 27.6632L43.6897 0.732849C44.9616 -0.244282 46.739 -0.244284 48.0109 0.732848L80.2043 27.6632C81.0669 28.3258 81.5717 29.3469 81.5717 30.429V71.1347C81.5717 73.0669 79.9921 74.6333 78.0437 74.6333H13.6569C11.7085 74.6333 10.1289 73.0669 10.1289 71.1347V30.429Z" fill="#167FFC"/>
<path fill-rule="evenodd" clip-rule="evenodd" d="M66.067 32.6568L39.5462 59.1779L25 45.1065L30.5622 39.3566L39.4531 47.9573L60.4101 27L66.067 32.6568Z" fill="white"/>
<path d="M134.558 37.602H117.398V19.254H108.29V65.454H117.398V46.314H134.558V65.454H143.6V19.254H134.558V37.602Z" fill="black"/>
<path d="M181.223 61.362C184.589 57.996 186.305 53.838 186.305 48.954C186.305 44.07 184.589 39.978 181.223 36.612C177.857 33.246 173.699 31.53 168.815 31.53C163.931 31.53 159.773 33.246 156.407 36.612C153.041 39.978 151.391 44.07 151.391 48.954C151.391 53.838 153.041 57.996 156.407 61.362C159.773 64.728 163.931 66.378 168.815 66.378C173.699 66.378 177.857 64.728 181.223 61.362ZM162.413 55.488C160.763 53.772 159.905 51.594 159.905 48.954C159.905 46.314 160.763 44.136 162.413 42.42C164.129 40.704 166.241 39.846 168.815 39.846C171.389 39.846 173.501 40.704 175.217 42.42C176.933 44.136 177.791 46.314 177.791 48.954C177.791 51.594 176.933 53.772 175.217 55.488C173.501 57.204 171.389 58.062 168.815 58.062C166.241 58.062 164.129 57.204 162.413 55.488Z" fill="black"/>
<path d="M200.759 41.826C200.759 40.176 202.409 39.12 204.587 39.12C207.029 39.12 208.811 40.242 209.867 42.486L217.127 38.526C214.553 34.038 209.933 31.53 204.587 31.53C201.023 31.53 198.053 32.454 195.611 34.368C193.235 36.216 192.047 38.79 192.047 42.024C192.047 48.888 198.185 50.934 203.069 52.188C206.435 53.046 209.075 54.036 209.075 55.818C209.075 57.732 207.557 58.656 204.521 58.656C201.155 58.656 199.043 57.204 198.053 54.366L190.661 58.524C193.103 63.738 197.723 66.378 204.521 66.378C208.283 66.378 211.451 65.454 213.959 63.672C216.533 61.824 217.787 59.184 217.787 55.818C217.853 48.756 211.583 46.446 206.765 45.456C203.399 44.598 200.759 43.608 200.759 41.826Z" fill="black"/>
<path d="M242.492 32.454H235.034V23.214L226.52 25.788V32.454H220.778V40.638H226.52V54.366C226.52 63.408 230.81 66.774 242.492 65.454V57.732C237.608 57.996 235.034 57.93 235.034 54.366V40.638H242.492V32.454Z" fill="black"/>
<path d="M254.039 28.494C256.943 28.494 259.319 26.118 259.319 23.28C259.319 20.442 256.943 18 254.039 18C251.201 18 248.825 20.442 248.825 23.28C248.825 26.118 251.201 28.494 254.039 28.494ZM258.329 65.454V32.454H249.815V65.454H258.329Z" fill="black"/>
<path d="M285.195 18.33C274.899 17.736 269.685 22.818 269.685 32.124V32.454H264.933V40.638H269.685V65.454H278.199V40.638H285.195V32.454H278.199V32.124C278.199 28.032 280.509 26.184 285.195 26.514V18.33Z" fill="black"/>
<path d="M305.897 54.63L297.317 32.454H288.011L301.541 64.398C299.957 68.886 297.449 70.8 292.895 70.734V78.654C301.343 79.116 306.887 74.958 310.319 65.454L322.331 32.454H313.223L305.897 54.63Z" fill="black"/>
</svg>
